<mxfile host="app.diagrams.net" modified="2023-04-18T16:41:49.022Z" agent="Mozilla/5.0 (Macintosh; Intel Mac OS X 10_15_7) AppleWebKit/605.1.15 (KHTML, like Gecko) Version/16.3 Safari/605.1.15" version="21.1.4" etag="dS4naRAllefdtH-QNKzH" type="github">
  <diagram name="Страница 1" id="o59B3Kg4Us2tKe5Cvlzr">
    <mxGraphModel>
      <root>
        <mxCell id="0" />
        <mxCell id="1" parent="0" />
      </root>
    </mxGraphModel>
  </diagram>
</mxfile>
